<?xml version="1.0" standalone="no"?>
<!DOCTYPE svg PUBLIC "-//W3C//DTD SVG 20010904//EN"
 "http://www.w3.org/TR/2001/REC-SVG-20010904/DTD/svg10.dtd">
<svg version="1.0" xmlns="http://www.w3.org/2000/svg"
 width="512.000000pt" height="512.000000pt" viewBox="0 0 512.000000 512.000000"
 preserveAspectRatio="xMidYMid meet">
<metadata>
Created by potrace 1.16, written by Peter Selinger 2001-2019
</metadata>
<g transform="translate(0.000000,512.000000) scale(0.100000,-0.100000)"
fill="#000000" stroke="none">
<path d="M2320 4565 c-682 -85 -1275 -507 -1571 -1120 -368 -762 -229 -1662
349 -2267 298 -311 647 -504 1073 -593 152 -32 454 -45 615 -26 380 45 748
199 1044 438 98 79 260 247 338 350 462 609 539 1433 196 2114 -384 765 -1205
1208 -2044 1104z m693 -245 c234 -40 488 -146 687 -288 120 -85 285 -250 373
-373 80 -113 203 -354 252 -497 44 -130 47 -211 11 -287 -26 -57 -101 -129
-149 -144 -18 -5 -715 -233 -1550 -505 -924 -302 -1532 -496 -1555 -496 -89 0
-174 42 -231 114 -51 64 -118 308 -142 516 -16 145 -6 405 21 534 69 327 214
603 437 836 249 260 544 421 903 495 69 14 159 36 201 49 67 22 189 48 274 59
17 2 103 5 192 6 120 1 190 -4 276 -19z m1395 -1773 c-1 -58 -5 -108 -8 -111
-6 -5 -553 31 -575 38 -5 1 121 45 280 98 160 52 294 91 298 87 5 -4 7 -54 5
-112z m-393 -207 c187 -28 347 -54 356 -58 15 -6 15 -14 -2 -97 -26 -123 -68
-255 -82 -260 -10 -4 -691 246 -703 258 -2 2 4 28 15 58 10 30 22 75 26 100 9
55 11 58 33 53 9 -2 170 -27 357 -54z m-611 -62 c-83 -254 -301 -472 -559
-559 -269 -91 -579 -44 -804 120 l-53 39 493 162 c272 89 593 194 714 234 121
40 221 69 223 65 2 -5 -4 -33 -14 -61z m481 -337 c185 -87 339 -161 342 -164
7 -8 -67 -142 -135 -245 -37 -55 -58 -79 -66 -73 -12 9 -589 443 -594 446 -1
1 18 32 42 69 24 37 49 80 56 96 7 17 14 30 15 30 2 0 155 -72 340 -159z
m-192 -385 l248 -220 -83 -83 c-46 -46 -109 -104 -140 -129 l-57 -45 -226 303
-225 302 83 77 82 76 35 -30 c19 -17 147 -130 283 -251z m-1855 193 c32 -28
70 -58 85 -67 15 -9 26 -21 25 -27 -4 -14 -406 -612 -416 -618 -11 -7 -138 90
-223 171 l-70 65 268 263 c147 145 270 263 271 263 2 1 29 -22 60 -50z m-278
-13 c0 -3 -360 -303 -409 -340 -15 -12 -34 8 -102 106 l-39 57 272 90 c311
103 278 92 278 87z m1774 -415 c108 -173 196 -318 196 -322 0 -18 -233 -138
-315 -163 -19 -5 -31 24 -149 345 -70 193 -125 353 -122 356 6 6 189 99 193
98 1 0 89 -141 197 -314z m-1197 242 c51 -21 93 -42 93 -47 0 -10 -219 -708
-224 -714 -6 -6 -177 63 -264 107 l-83 42 43 77 c223 404 325 581 333 577 6
-2 52 -21 102 -42z m817 -417 c76 -280 95 -360 85 -367 -16 -9 -212 -46 -296
-55 l-61 -6 -6 53 c-5 49 -46 667 -46 697 0 7 15 12 38 13 20 0 62 7 92 14
100 23 83 53 194 -349z m-494 335 l75 -6 3 -35 c2 -19 1 -190 -3 -379 l-7
-344 -112 7 c-93 5 -252 29 -261 38 -3 3 150 685 161 721 5 15 12 17 37 11 18
-4 66 -9 107 -13z"/>
<path d="M1570 3875 c0 -9 -5 -13 -10 -10 -11 7 -80 -15 -80 -26 0 -4 10 -5
23 -3 l22 5 -23 -12 c-13 -7 -21 -18 -18 -26 3 -8 1 -11 -4 -8 -6 3 -10 2 -10
-4 0 -6 -7 -8 -15 -5 -11 5 -17 -3 -21 -25 -7 -35 -24 -32 -24 5 0 13 -4 24
-9 24 -5 0 -7 -19 -4 -42 5 -36 4 -40 -10 -35 -10 4 -17 2 -17 -2 0 -5 5 -11
11 -13 7 -2 5 -9 -5 -17 -13 -11 -17 -10 -22 5 -17 54 -23 55 -17 3 5 -51 3
-56 -20 -71 -22 -15 -27 -15 -46 -2 -28 20 -27 7 2 -24 12 -14 16 -22 8 -17
-11 6 -13 4 -7 -11 5 -14 0 -12 -22 9 -27 26 -33 27 -53 16 -17 -8 -20 -14
-10 -17 7 -2 16 1 20 7 5 7 17 1 34 -19 15 -16 23 -30 17 -30 -5 0 -9 -3 -9
-7 4 -27 -2 -34 -17 -19 -8 9 -21 16 -27 15 -9 0 -8 -2 1 -6 6 -2 12 -18 12
-34 0 -17 -4 -28 -10 -24 -5 3 -7 12 -3 20 3 8 0 15 -6 15 -12 0 -19 -23 -25
-84 -3 -22 -12 -43 -20 -48 -8 -5 -13 -17 -11 -28 2 -11 -1 -17 -8 -14 -11 4
-42 -48 -42 -71 -1 -30 -17 -35 -56 -15 -21 11 -39 16 -39 12 0 -5 20 -20 45
-33 25 -13 45 -27 45 -30 0 -9 -59 5 -87 19 -12 7 -30 12 -39 12 -10 0 9 -14
42 -31 46 -24 60 -37 62 -55 1 -13 -3 -24 -8 -24 -6 0 -9 -5 -7 -11 1 -6 -3
-13 -9 -16 -7 -2 -10 5 -7 21 3 14 9 23 14 20 5 -3 9 -1 9 5 0 5 -5 13 -11 17
-14 8 -29 -14 -29 -43 0 -28 -8 -29 -26 -6 -7 10 -15 15 -18 12 -4 -3 3 -17
14 -32 11 -14 20 -30 20 -36 0 -6 7 -11 15 -11 11 0 4 -16 -22 -57 -20 -32
-40 -59 -45 -61 -13 -6 -9 -22 5 -22 8 0 22 16 33 35 20 37 31 44 31 20 0 -8
-4 -12 -8 -10 -8 6 -21 -24 -14 -34 2 -5 -7 -14 -20 -21 -32 -17 -32 -32 0
-24 31 8 34 -12 3 -22 -19 -6 -20 -8 -6 -18 12 -9 13 -17 7 -29 -12 -21 -29
-22 -29 -1 0 8 5 12 10 9 6 -3 10 -2 10 3 0 6 -7 13 -16 16 -8 3 -13 10 -9 15
3 5 0 13 -5 16 -8 5 -10 -9 -8 -42 2 -29 8 -48 16 -49 22 -3 23 -4 11 -25 -7
-14 -7 -19 0 -15 11 7 36 -32 27 -42 -3 -3 -6 0 -6 7 0 7 -4 10 -9 6 -5 -3
-17 5 -26 17 -11 16 -18 19 -23 11 -4 -7 -26 -20 -47 -29 -22 -9 -35 -19 -28
-21 7 -2 21 0 32 6 23 13 31 14 30 4 -3 -20 2 -34 10 -29 5 4 11 0 14 -6 2 -8
8 -9 13 -4 5 5 4 11 -4 13 -7 3 -17 13 -22 24 -19 34 13 22 36 -14 22 -33 22
-34 3 -46 -24 -14 -16 -31 11 -24 11 3 17 10 13 16 -4 6 -1 7 6 3 9 -6 8 -13
-5 -27 -19 -21 -12 -38 9 -21 10 8 13 7 13 -7 0 -11 -6 -17 -13 -14 -16 6 -17
-9 -2 -24 7 -7 -8 -12 -50 -17 -34 -4 -61 -12 -61 -18 0 -7 14 -8 39 -4 49 8
70 0 64 -23 -2 -10 2 -25 11 -33 11 -11 12 -18 3 -27 -8 -8 -8 -11 1 -11 7 0
12 -8 12 -17 -1 -15 -4 -14 -21 6 -28 33 -37 17 -11 -19 33 -44 26 -60 -8 -20
-36 42 -48 36 -17 -8 21 -31 28 -33 72 -17 15 5 16 4 6 -3 -20 -14 -6 -43 16
-35 14 5 16 3 6 -7 -10 -10 -15 -11 -27 -1 -12 10 -18 7 -33 -14 -10 -15 -26
-35 -35 -46 -21 -23 -22 -29 -5 -29 7 0 23 18 37 40 14 22 28 40 32 40 12 0
19 -18 7 -22 -5 -2 -7 -11 -4 -21 4 -9 11 -15 15 -12 4 3 10 -1 13 -9 6 -14
-19 -44 -64 -79 -20 -15 -21 -17 -4 -12 11 4 27 8 35 8 19 0 39 27 33 44 -3 7
1 13 8 13 7 0 10 -3 6 -6 -3 -3 -2 -16 3 -29 7 -18 3 -28 -20 -50 -30 -28 -32
-57 -2 -33 14 12 14 10 2 -12 -9 -17 -10 -25 -1 -28 6 -2 11 -8 11 -13 0 -4
-7 -6 -15 -3 -11 5 -15 -1 -15 -19 0 -14 5 -29 10 -32 7 -4 3 -19 -10 -39
l-20 -33 35 -6 c71 -12 141 25 175 94 28 54 25 99 -11 182 -39 89 -83 262 -99
391 -17 136 -8 391 20 519 59 280 193 553 366 747 87 98 87 97 75 105 -6 3
-11 -1 -11 -10z"/>
</g>
</svg>
